<?xml version="1.0" encoding="utf-8"?>
<!-- Generator: Adobe Illustrator 19.2.0, SVG Export Plug-In . SVG Version: 6.00 Build 0)  -->
<svg version="1.1" id="Layer_1" xmlns="http://www.w3.org/2000/svg" xmlns:xlink="http://www.w3.org/1999/xlink" x="0px" y="0px"
	 viewBox="0 0 339.4 61.8" style="enable-background:new 0 0 339.4 61.8;" xml:space="preserve">
<g>
	<path style="fill:#505050;" d="M111.6,37.6v7.6c-1.5,0.6-3,1.1-4.6,1.6c-1.5,0.4-3.6,0.6-6.3,0.6C90.9,47.3,86,41.9,86,31
		c0-3.1,0.6-5.9,1.9-8.6c1.3-2.6,3.1-4.7,5.5-6.3c2.4-1.6,5.1-2.4,8.1-2.4c4.2,0,7.5,0.5,9.9,1.5V23H109l-1.1-5.5
		c-0.1,0-0.5-0.1-1.1-0.3c-0.6-0.1-1.4-0.3-2.4-0.4s-2.1-0.2-3.3-0.2c-2.4,0-4.4,0.5-5.9,1.5s-2.6,2.5-3.2,4.5c-0.7,2-1,4.7-1,8.1
		c0,4.2,0.9,7.5,2.7,10c1.8,2.5,4.3,3.7,7.6,3.7c1.5,0,2.7-0.1,3.7-0.4c1-0.3,1.8-0.6,2.3-0.9c0.5-0.3,0.8-0.5,0.8-0.6l1-5.1h2.5
		V37.6z"/>
	<path style="fill:#505050;" d="M115.3,44.7l4-0.7V15.7l-4-0.7v-2.1l6.9-1.1l1.1,0.5V44l3.9,0.7v2h-12L115.3,44.7L115.3,44.7z"/>
	<path style="fill:#505050;" d="M132.5,43.8c-1.8-2.3-2.8-5.2-2.8-8.7c0-2.6,0.5-5,1.4-7c1-2.1,2.3-3.7,4-4.8
		c1.7-1.1,3.6-1.7,5.8-1.7c2.7,0,4.8,0.9,6.1,2.7c1.4,1.8,2.1,3.9,2.1,6.4c0,1.8-0.2,3-0.5,3.6c-0.3,0.6-1,0.9-1.9,0.9h-12.5
		c0,2.5,0.6,4.6,1.9,6.2c1.3,1.6,3.2,2.4,6,2.4c1.2,0,2.2-0.1,3.1-0.3c0.9-0.2,1.6-0.4,2.1-0.5c0.5-0.2,0.8-0.3,0.9-0.4l0.7,1.4
		c0,0.1-0.4,0.4-1.1,1c-0.8,0.6-1.7,1.1-2.9,1.6s-2.6,0.7-4.1,0.7C137,47.2,134.3,46.1,132.5,43.8z M144.9,32.4
		c0.1-0.6,0.1-1.3,0.1-2c0-2-0.4-3.5-1.1-4.5c-0.7-1-2-1.5-3.8-1.5c-2,0-3.5,0.7-4.5,2.1s-1.5,3.5-1.5,6.3L144.9,32.4z"/>
	<path style="fill:#505050;" d="M153.1,24.9l-2.8-0.6v-2.2h10.9v2.1l-3.2,0.7v0.7l5.1,13.7l0.5,1.9l0.5-2.4l5-13.2v-0.7l-3.2-0.8V22
		h9.3v2.2l-2.6,0.8l-8.7,22h-1.8L153.1,24.9z"/>
	<path style="fill:#505050;" d="M178.3,43.8c-1.8-2.3-2.8-5.2-2.8-8.7c0-2.6,0.5-5,1.4-7c1-2.1,2.3-3.7,4-4.8
		c1.7-1.1,3.6-1.7,5.8-1.7c2.7,0,4.8,0.9,6.1,2.7c1.4,1.8,2,3.9,2,6.4c0,1.8-0.2,3-0.5,3.6c-0.3,0.6-1,0.9-1.9,0.9h-12.5
		c0,2.5,0.6,4.6,1.9,6.2c1.3,1.6,3.2,2.4,6,2.4c1.2,0,2.2-0.1,3.1-0.3c0.9-0.2,1.6-0.4,2-0.5c0.5-0.2,0.8-0.3,0.9-0.4l0.7,1.4
		c0,0.1-0.4,0.4-1.1,1c-0.8,0.6-1.7,1.1-3,1.6s-2.6,0.7-4.1,0.7C182.8,47.2,180.1,46.1,178.3,43.8z M190.7,32.4
		c0.1-0.6,0.1-1.3,0.1-2c0-2-0.4-3.5-1.1-4.5c-0.7-1-2-1.5-3.8-1.5c-2,0-3.5,0.7-4.5,2.1s-1.5,3.5-1.5,6.3L190.7,32.4z"/>
	<path style="fill:#505050;" d="M202.2,44V26l-3.9-0.7v-2l7.2-1.4l0.8,2.8c0.2-0.2,0.6-0.5,1.2-1c0.6-0.5,1.4-1,2.2-1.4
		c0.8-0.5,1.6-0.7,2.3-0.7s1.2,0.2,1.6,0.7c0.4,0.4,0.6,1,0.6,1.8c0,0.5-0.1,1-0.3,1.4s-0.5,0.7-0.7,0.9s-0.4,0.3-0.5,0.4l-2.3-0.6
		c-0.3-0.1-0.6-0.2-0.9-0.2c-0.3,0-0.6,0-0.9,0c-0.5,0-1,0.1-1.5,0.2s-0.8,0.2-0.8,0.2V44l4.6,0.6v2.1h-12.2v-2L202.2,44z"/>
	<path style="fill:#01BBE4;" d="M218.1,44.6l4.1-0.9V17.4l-4.1-0.9v-2.1h13.1c3.1,0,5.6,0.7,7.5,2.1c1.8,1.4,2.8,3.3,2.8,5.7
		c0,1.9-0.5,3.4-1.4,4.6s-2.4,2.1-4.4,2.8c2.1,0.4,3.9,1.4,5.3,3c1.4,1.6,2.1,3.4,2.1,5.3c0,2.8-1,5-3,6.5c-2,1.6-4.7,2.4-8.2,2.4
		h-13.8L218.1,44.6L218.1,44.6z M229.1,28.9c2.5,0,4.5-0.6,5.8-1.7s2-2.8,2-5c0-3.3-2.2-5-6.7-5c-1.2,0-2.4,0.1-3.6,0.3v11.4
		C226.6,28.9,229.1,28.9,229.1,28.9z M236.4,42.4c1.2-1.1,1.8-2.6,1.8-4.7c0-2.1-0.6-3.7-1.9-4.6c-1.3-1-3.4-1.4-6.3-1.4h-3.4v12.1
		c1.3,0.2,2.8,0.3,4.6,0.3C233.5,44,235.2,43.5,236.4,42.4z"/>
	<path style="fill:#01BBE4;" d="M250.1,44V26l-3.9-0.7v-2l7.2-1.4l0.8,2.8c0.2-0.2,0.6-0.5,1.2-1s1.4-1,2.2-1.4
		c0.8-0.5,1.6-0.7,2.3-0.7c0.7,0,1.2,0.2,1.6,0.7c0.4,0.4,0.6,1,0.6,1.8c0,0.5-0.1,1-0.3,1.4c-0.2,0.4-0.5,0.7-0.7,0.9
		s-0.4,0.3-0.5,0.4l-2.3-0.6c-0.3-0.1-0.6-0.2-0.9-0.2s-0.6,0-0.9,0c-0.5,0-1,0.1-1.5,0.2s-0.8,0.2-0.8,0.2V44l4.6,0.6v2.1h-12.2v-2
		L250.1,44z"/>
	<path style="fill:#01BBE4;" d="M269.6,45.4c-1.3-1.2-1.9-2.9-1.9-5.1V25.6l-4.2-0.7V23l6.9-1.4l1.4,0.7v15.9c0,2.2,0.4,3.7,1.2,4.5
		c0.8,0.9,2.2,1.3,4.3,1.3c0.7,0,1.5-0.1,2.4-0.4c0.9-0.3,1.7-0.6,2.4-1v-17l-4.1-0.7V23l6.9-1.4l1.4,0.7v21l3.5,0.8V46l-6.9,1
		l-0.8-2.5l-0.1,0.1c-0.7,0.8-1.8,1.5-3,2s-2.6,0.8-4,0.8C272.7,47.2,270.8,46.6,269.6,45.4z"/>
	<path style="fill:#01BBE4;" d="M295.1,39.2l0.7,3.9c0.5,0.4,1.2,0.7,2,1s1.7,0.4,2.8,0.4c1.9,0,3.3-0.4,4-1.2
		c0.8-0.8,1.1-1.8,1.1-3.2c0-0.9-0.2-1.6-0.7-2.1s-1.1-0.9-1.8-1.2c-0.7-0.3-1.7-0.6-3-0.9c-1.6-0.4-2.9-0.8-3.9-1.3
		c-1-0.4-1.9-1.1-2.6-2.1s-1.1-2.3-1.1-3.9c0-2.3,0.8-4,2.5-5.2c1.7-1.2,3.9-1.8,6.5-1.8c1.4,0,2.8,0.2,4.3,0.5s2.4,0.6,2.9,0.9
		l-0.7,6.3h-2l-0.7-4c0,0-0.5-0.2-1.5-0.4c-1-0.2-1.8-0.4-2.7-0.4c-1.8,0-3.1,0.3-3.8,0.9c-0.7,0.6-1.1,1.5-1.1,2.8
		c0,0.8,0.2,1.4,0.7,1.9s1,0.9,1.7,1.1c0.7,0.3,1.6,0.6,2.9,0.9c1.6,0.4,3,0.9,4,1.3c1,0.5,2,1.2,2.7,2.2c0.8,1,1.1,2.3,1.1,4
		c0,2.8-0.9,4.8-2.6,5.9c-1.7,1.2-3.9,1.8-6.7,1.8c-1.6,0-3.2-0.2-4.8-0.7c-1.5-0.4-2.6-0.9-3.2-1.3l0.6-6.1
		C292.7,39.2,295.1,39.2,295.1,39.2z"/>
	<path style="fill:#01BBE4;" d="M312.8,44.7l4-0.7V15.7l-4-0.7v-2.1l7-1.1l1.1,0.5v11.9c1.1-0.7,2.4-1.3,3.9-1.8s2.8-0.7,3.9-0.7
		c1.9,0,3.5,0.6,4.7,1.7s1.8,2.8,1.8,5.2V44l4,0.7v2h-12v-2l3.9-0.7V29.1c0-1.5-0.4-2.6-1.3-3.1c-0.9-0.6-2.2-0.9-3.9-0.9
		c-0.7,0-1.5,0.1-2.5,0.2s-1.8,0.3-2.6,0.5V44l4,0.7v2h-12.1v-2H312.8z"/>
</g>
<g>
	<g>
		<g>
			<path style="fill:#505050;" d="M32,41.6c-0.1-0.3-1-2.1,0.8-5.3c1.2-2.5,1.7-4.3,1-6.7c-0.4-1.3-0.7-2-2.6-3.7
				c-0.8-0.7-1.4-1.2-2.7-1.9c-0.3,0-1.1,0.1-1.4,0.2c-3.7,1.2-8,6-7.3,13.1c0,0.4,0,0.9,0,1.3c0,0.4-0.1,0.7-0.5,0.9
				c-1.5,1.2-1.1,0.8-2.6,2v0.1c0.6,1.4,1.7,2.5,3.2,3.2c0.8-1,1.2-1.7,2-2.8c0.2-0.3,0.6-0.5,1-0.5c2,0.1,4.2,0.4,5.7,0.4
				C31.1,41.9,32,41.6,32,41.6z"/>
		</g>
	</g>
	<path style="fill:#505050;" d="M43,2.4C27.3-4.2,9.2,3.2,2.5,18.9S3.3,52.8,19,59.4s33.9-0.8,40.5-16.5S58.7,9.1,43,2.4z
		 M20.6,55.7c-2.5-1.1-4.8-2.5-6.8-4.2c0.1-0.1,0.4-0.4,0.5-0.5c0.9-0.9,1.2-1.2,2.1-2.1c0.5-0.5,0.3-0.3,0.7-0.8
		c0.1-0.1,0.1-0.2-0.1-0.3c-1.3-0.7-2.4-1.6-3.1-2.9c-0.1-0.2-0.2-0.3-0.4-0.1c-1.4,1.3-1.9,1.7-3.3,3c-6-7.5-7.9-18-3.9-27.4
		C12,6.8,27.8,0.3,41.5,6.1s20.1,21.6,14.3,35.3S34.2,61.5,20.6,55.7z"/>
	<path style="fill:#01BBE4;" d="M32,41.6c0,0,4.3-1.6,6.8-4.1s5.9-8.7,5.4-11.8c-0.4,0.9-1.6,2.6-2.3,3.1c-1.2,0.9-2.9,1.5-4.4,2
		c-0.1,0-0.2,0.1-0.3,0.1c4.6-3.2,7.3-10.2,5.9-15.6c-0.7,0.9-1.9,2.6-2.7,3.4c-2.3,2.4-5,4.2-8.2,4.8c0,0-0.1,0-0.2,0
		c-0.4,0.1-1,0.1-1.7,0.2s-1.4,0.2-2.1,0.3c1.3,0.6,2.2,1.3,3.1,2c1.8,1.7,2.1,2.3,2.5,3.6c0.7,2.3,0.2,4.1-1,6.7
		C30.8,39.6,32,41.6,32,41.6"/>
</g>
</svg>
